<svg version="1.2" xmlns="http://www.w3.org/2000/svg" viewBox="0 0 2280 2244" width="2280" height="2244">
	<title>28267842_7</title>
	<defs>
		<clipPath clipPathUnits="userSpaceOnUse" id="cp1">
			<path d="m640.56 1973.25c385.72-89.44 592.87-278.66 676.96-538.61-118.32 16.18-171.82 42.79-223.63 52.31-97.16 238.16-294.39 398.58-453.33 486.3z"/>
		</clipPath>
		<linearGradient id="g1" x2="1" gradientUnits="userSpaceOnUse" gradientTransform="matrix(-675.524,509.351,-493.345,-654.297,1082.725,1625.764)">
			<stop offset="0" stop-color="#00478f"/>
			<stop offset="1" stop-color="#29c4ff"/>
		</linearGradient>
		<clipPath clipPathUnits="userSpaceOnUse" id="cp2">
			<path d="m799.19 2132.78c352-181.32 506.41-415.57 524.18-688.2-110.74 44.7-156.08 83.63-203.97 105.56-35.78 254.71-187.64 458.61-320.21 582.64z"/>
		</clipPath>
		<linearGradient id="g2" x2="1" gradientUnits="userSpaceOnUse" gradientTransform="matrix(-558.478,745.456,-717.084,-537.222,1189.577,1617.421)">
			<stop offset="0" stop-color="#00478f"/>
			<stop offset="1" stop-color="#29c4ff"/>
		</linearGradient>
		<clipPath clipPathUnits="userSpaceOnUse" id="cp3">
			<path d="m1031.94 2197.02c243.14-224.74 315.24-448 268.65-671.66-79.25 60.76-107.09 102.26-140.78 130.63 28.07 213.24-48.75 411.48-127.87 541.03z"/>
		</clipPath>
		<linearGradient id="g3" x2="1" gradientUnits="userSpaceOnUse" gradientTransform="matrix(-164.657,641.671,-415.747,-106.684,1253.2,1613.186)">
			<stop offset="0" stop-color="#00478f"/>
			<stop offset="1" stop-color="#29c4ff"/>
		</linearGradient>
		<clipPath clipPathUnits="userSpaceOnUse" id="cp4">
			<path d="m171.98 821.35c133.7-622.8 962.66 167.09 1084.05 401.22 0 0 269.14 533.3-69.78 951.96 224.69-462.98-147-662.16-477.11-779.91-368.35-131.4-312.55-403.9-442.09-469.35-64.05-32.37-132.12 0.04-168.58 65.54-9.68-57.31-4.51-101.55 73.51-169.46z"/>
		</clipPath>
		<linearGradient id="g4" x2="1" gradientUnits="userSpaceOnUse" gradientTransform="matrix(99.683,1091.515,-837.531,76.488,727.641,317.802)">
			<stop offset="0" stop-color="#ffce4b"/>
			<stop offset="1" stop-color="#d3226f"/>
		</linearGradient>
		<clipPath clipPathUnits="userSpaceOnUse" id="cp5">
			<path d="m881.52 1448.92c79.93-197.39 60.72-347.06-27.66-464.45-29.47 57.07-52.37 105.74-64.21 131.48 52.85 135.45 88.83 272.6 91.87 332.97z"/>
		</clipPath>
		<linearGradient id="g5" x2="1" gradientUnits="userSpaceOnUse" gradientTransform="matrix(42.484,396.724,-182.019,19.492,870.348,1168.135)">
			<stop offset="0" stop-color="#00478f"/>
			<stop offset="1" stop-color="#51f4e9"/>
		</linearGradient>
		<clipPath clipPathUnits="userSpaceOnUse" id="cp6">
			<path d="m1033.57 1478.49c81.25-288.12 31.35-494.28-110.24-644.69-32.38 84.29-56.88 155.81-69.44 193.61 94.72 181.11 166.13 367.19 179.68 451.08z"/>
		</clipPath>
		<linearGradient id="g6" x2="1" gradientUnits="userSpaceOnUse" gradientTransform="matrix(88.833,633.49,-326.693,45.811,970.552,1057.742)">
			<stop offset="0" stop-color="#00478f"/>
			<stop offset="1" stop-color="#29c4ff"/>
		</linearGradient>
		<clipPath clipPathUnits="userSpaceOnUse" id="cp7">
			<path d="m1253.46 1471.16c43.16-328.28-44.21-546.01-223.08-688.14-22.05 97.4-46.7 162.16-54.45 205.53 132.45 183.19 249.37 392.94 277.53 482.61z"/>
		</clipPath>
		<linearGradient id="g7" x2="1" gradientUnits="userSpaceOnUse" gradientTransform="matrix(317.867,632.764,-496.514,249.422,988.646,833.212)">
			<stop offset="0" stop-color="#003780"/>
			<stop offset="1" stop-color="#b222d3"/>
		</linearGradient>
		<clipPath clipPathUnits="userSpaceOnUse" id="cp8">
			<path d="m1425.19 1461.19c59.23-373.42-72.19-593.89-322.93-721.96-19.36 35.66-37.41 70.24-53.69 102.26 176.24 206.44 343.97 505.19 376.62 619.7z"/>
		</clipPath>
		<linearGradient id="g8" x2="1" gradientUnits="userSpaceOnUse" gradientTransform="matrix(400.847,267.651,-295.373,442.364,1280.798,1109.756)">
			<stop offset="0" stop-color="#4e046d"/>
			<stop offset="1" stop-color="#ff8bc7"/>
		</linearGradient>
		<clipPath clipPathUnits="userSpaceOnUse" id="cp9">
			<path d="m1756.18 1344.75c-71.62-430.01-308.4-603.66-644.9-629-14.45 26.14-28.22 51.85-41.1 76.51 269.36 135.47 604.92 434 686 552.49z"/>
		</clipPath>
		<linearGradient id="g9" x2="1" gradientUnits="userSpaceOnUse" gradientTransform="matrix(813.248,729.991,-726.585,809.454,1110.238,758.325)">
			<stop offset="0" stop-color="#4e046d"/>
			<stop offset="1" stop-color="#ff8bc7"/>
		</linearGradient>
		<clipPath clipPathUnits="userSpaceOnUse" id="cp10">
			<path d="m2050.03 1138.03c-219.68-441.03-529.07-564.39-896.08-497.07-22.1 37.42-43.2 75.25-62.75 111.64 350.24 61.35 827.17 280.35 958.83 385.43z"/>
		</clipPath>
		<linearGradient id="g10" x2="1" gradientUnits="userSpaceOnUse" gradientTransform="matrix(611.32,311.394,-263.043,516.398,1484.913,812.185)">
			<stop offset="0" stop-color="#b91c58"/>
			<stop offset="1" stop-color="#f95c97"/>
		</linearGradient>
		<clipPath clipPathUnits="userSpaceOnUse" id="cp11">
			<path d="m2188.06 887.56c-287.92-404.27-615.43-475.98-970.41-348.39-24.98 37.38-49.46 77.21-72.75 117.24 356.47-3.73 891.71 145.05 1043.16 231.15z"/>
		</clipPath>
		<linearGradient id="g11" x2="1" gradientUnits="userSpaceOnUse" gradientTransform="matrix(1001.807,186.893,-110.718,593.485,1324.378,585.748)">
			<stop offset="0" stop-color="#b91c58"/>
			<stop offset="1" stop-color="#ff8bc7"/>
		</linearGradient>
		<clipPath clipPathUnits="userSpaceOnUse" id="cp12">
			<path d="m2129.59 603.53c-291.15-295.59-570.87-308.99-846.93-153.78-26.2 32.58-52.54 69.9-78.22 109.46 287.2-62.81 783.35-8.72 925.15 44.32z"/>
		</clipPath>
		<linearGradient id="g12" x2="1" gradientUnits="userSpaceOnUse" gradientTransform="matrix(-686.802,-120.359,57.903,-330.408,2080.28,521.46)">
			<stop offset="0" stop-color="#ffce4b"/>
			<stop offset="1" stop-color="#d3226f"/>
		</linearGradient>
		<clipPath clipPathUnits="userSpaceOnUse" id="cp13">
			<path d="m1010.28 930.98c191.03-324.25 410.82-744.41 990.89-802.42-591.47-81.84-938.66 343.68-1197.54 642.42-185.07 213.56-325.01 362.34-476.8 214.66 50.35 84.02 75.04 222.66 225.45 329.48 210.02 14.71 327.28-162.26 458-384.14z"/>
		</clipPath>
		<linearGradient id="g13" x2="1" gradientUnits="userSpaceOnUse" gradientTransform="matrix(421.159,-1074.085,1205.781,472.798,882.869,1405.255)">
			<stop offset="0" stop-color="#00478f"/>
			<stop offset="1" stop-color="#c11fda"/>
		</linearGradient>
		<clipPath clipPathUnits="userSpaceOnUse" id="cp14">
			<path d="m2190.56 357.83c-309.01-219.3-579.04-116.31-579.04-116.31-148.53 78.03-261.79 187.27-355.19 306.42 132.29-166.74 771.76-220.04 934.23-190.11z"/>
		</clipPath>
		<linearGradient id="g14" x2="1" gradientUnits="userSpaceOnUse" gradientTransform="matrix(-958.79,-94.684,48.736,-493.508,2093.455,379.775)">
			<stop offset="0" stop-color="#ffce4b"/>
			<stop offset="1" stop-color="#d3226f"/>
		</linearGradient>
	</defs>
	<style>
		.s0 { fill: url(#g1) } 
		.s1 { fill: url(#g2) } 
		.s2 { fill: url(#g3) } 
		.s3 { fill: url(#g4) } 
		.s4 { fill: #990038 } 
		.s5 { fill: none;stroke: #231916;stroke-miterlimit:22.9256;stroke-width: .6 } 
		.s6 { fill: url(#g5) } 
		.s7 { fill: url(#g6) } 
		.s8 { fill: url(#g7) } 
		.s9 { fill: url(#g8) } 
		.s10 { fill: url(#g9) } 
		.s11 { fill: url(#g10) } 
		.s12 { fill: url(#g11) } 
		.s13 { fill: url(#g12) } 
		.s14 { fill: url(#g13) } 
		.s15 { fill: url(#g14) } 
		.s16 { fill: #102770 } 
	</style>
	<g>
		<g>
			<g id="Clip-Path" clip-path="url(#cp1)">
				<path fill-rule="evenodd" class="s0" d="m640.6 1434.6h676.9v538.7h-676.9z"/>
			</g>
		</g>
		<g>
			<g id="Clip-Path" clip-path="url(#cp2)">
				<path fill-rule="evenodd" class="s1" d="m799.2 1444.6h524.2v688.2h-524.2z"/>
			</g>
		</g>
		<g>
			<g id="Clip-Path" clip-path="url(#cp3)">
				<path fill-rule="evenodd" class="s2" d="m1031.9 1525.4h315.3v671.6h-315.3z"/>
			</g>
		</g>
		<g>
			<g id="Clip-Path" clip-path="url(#cp4)">
				<path fill-rule="evenodd" class="s3" d="m88.8 198.6h1436.4v1975.9h-1436.4z"/>
			</g>
		</g>
		<path fill-rule="evenodd" class="s4" d="m1214.5 2109.8c160.9-417.1-191.1-603.1-505.4-715.2-368.3-131.4-312.5-403.9-442-469.3-64.1-32.4-132.2 0-168.6 65.5 0 0 131-423.7 666.5 55.4 0 0 743.6 333.1 449.5 1063.6z"/>
		<path class="s5" d="m326.8 985.6c364.1 354.3 660.1-997.4 1674.4-857-977 97.7-932 1222.7-1448.9 1186.5"/>
		<g>
			<g id="Clip-Path" clip-path="url(#cp5)">
				<path fill-rule="evenodd" class="s6" d="m789.7 984.5h171.7v464.4h-171.7z"/>
			</g>
		</g>
		<g>
			<g id="Clip-Path" clip-path="url(#cp6)">
				<path fill-rule="evenodd" class="s7" d="m853.9 833.8h260.9v644.7h-260.9z"/>
			</g>
		</g>
		<g>
			<g id="Clip-Path" clip-path="url(#cp7)">
				<path fill-rule="evenodd" class="s8" d="m975.9 783h320.7v688.2h-320.7z"/>
			</g>
		</g>
		<g>
			<g id="Clip-Path" clip-path="url(#cp8)">
				<path fill-rule="evenodd" class="s9" d="m1048.6 739.2h435.8v722h-435.8z"/>
			</g>
		</g>
		<g>
			<g id="Clip-Path" clip-path="url(#cp9)">
				<path fill-rule="evenodd" class="s10" d="m1070.2 715.7h686v629.1h-686z"/>
			</g>
		</g>
		<g>
			<g id="Clip-Path" clip-path="url(#cp10)">
				<path fill-rule="evenodd" class="s11" d="m1091.2 573.6h958.8v564.4h-958.8z"/>
			</g>
		</g>
		<g>
			<g id="Clip-Path" clip-path="url(#cp11)">
				<path fill-rule="evenodd" class="s12" d="m1144.9 411.6h1043.2v476h-1043.2z"/>
			</g>
		</g>
		<g>
			<g id="Clip-Path" clip-path="url(#cp12)">
				<path fill-rule="evenodd" class="s13" d="m1204.4 294.5h925.2v309h-925.2z"/>
			</g>
		</g>
		<g>
			<g id="Clip-Path" clip-path="url(#cp13)">
				<path fill-rule="evenodd" class="s14" d="m326.8 46.7h1674.4v1283.1h-1674.4z"/>
			</g>
		</g>
		<g>
			<g id="Clip-Path" clip-path="url(#cp14)">
				<path fill-rule="evenodd" class="s15" d="m1256.3 138.5h934.3v409.4h-934.3z"/>
			</g>
		</g>
		<path fill-rule="evenodd" class="s16" d="m923.3 833.8c-331.4 510.6-525.5 299.9-525.5 299.9 31.5 61 75.8 125.5 154.5 181.4 210 14.7 327.3-162.2 458-384.1 191-324.3 410.8-744.4 990.9-802.4-675.3-8.1-1077.9 705.2-1077.9 705.2z"/>
	</g>
</svg>